<svg id="Layer_2" xmlns="http://www.w3.org/2000/svg" viewBox="0 0 99.08 119.08"><defs><style>.cls-1{fill:#96bbfd;}.cls-2{fill:#fbfdff;}.cls-3{fill:#508ffc;}.cls-4{fill:#4273e5;}</style></defs><g id="Layer_1-2"><path class="cls-3" d="m53.71.08H12C5.37.08,0,5.45,0,12.08v95c0,6.63,5.37,12,12,12h75c6.63,0,12-5.37,12-12v-61.71L53.71.08Z"/><polygon class="cls-4" points="55.99 40.05 99 83.06 99 45.38 74.83 21.21 55.99 40.05"/><path class="cls-1" d="m54,0v33.08c0,6.63,5.37,12,12,12h33.08L54,0Z"/><rect class="cls-2" x="19" y="54.08" width="40" height="5"/><rect class="cls-2" x="19" y="63.08" width="40" height="5"/><rect class="cls-2" x="19" y="72.08" width="40" height="5"/><rect class="cls-2" x="19" y="81.08" width="20" height="5"/></g></svg>